<svg width="119" height="344" viewBox="0 0 119 344" fill="none" xmlns="http://www.w3.org/2000/svg">
<path d="M45.2022 12.4414C44.9047 10.1513 47.198 8.39792 49.3301 9.28539L58.9244 13.279C61.0565 14.1665 61.4283 17.0292 59.5937 18.4319L51.3379 24.744C49.5033 26.1467 46.8382 25.0373 46.5408 22.7472L45.2022 12.4414Z" fill="#F54748"/>
<path d="M59 250L59.6306 249.224L59 250ZM4.99459 342.089C5.48242 341.83 5.66797 341.224 5.40904 340.737C5.15011 340.249 4.54474 340.063 4.05692 340.322L4.99459 342.089ZM10.9355 336.423C10.462 336.707 10.3084 337.321 10.5926 337.795C10.8768 338.268 11.4911 338.422 11.9646 338.138L10.9355 336.423ZM18.7422 333.872C19.2035 333.568 19.3313 332.948 19.0277 332.487C18.7241 332.025 18.1039 331.897 17.6426 332.201L18.7422 333.872ZM24.182 327.715C23.7326 328.036 23.6284 328.661 23.9494 329.11C24.2704 329.559 24.8949 329.664 25.3443 329.343L24.182 327.715ZM31.7716 324.567C32.2085 324.229 32.2889 323.601 31.9511 323.164C31.6133 322.727 30.9853 322.647 30.5483 322.985L31.7716 324.567ZM36.718 318.017C36.295 318.372 36.2399 319.003 36.595 319.426C36.9501 319.849 37.5808 319.904 38.0038 319.549L36.718 318.017ZM44.024 314.266C44.4306 313.892 44.4574 313.259 44.0837 312.853C43.71 312.446 43.0774 312.419 42.6707 312.793L44.024 314.266ZM48.3588 307.294C47.9722 307.688 47.9785 308.321 48.373 308.708C48.7674 309.094 49.4005 309.088 49.7871 308.693L48.3588 307.294ZM55.2231 302.797C55.5838 302.378 55.5373 301.747 55.1191 301.386C54.701 301.025 54.0695 301.072 53.7087 301.49L55.2231 302.797ZM58.6219 295.328C58.2961 295.774 58.3936 296.4 58.8396 296.726C59.2856 297.052 59.9112 296.954 60.237 296.508L58.6219 295.328ZM64.6555 289.755C64.931 289.276 64.7663 288.664 64.2876 288.389C63.8089 288.114 63.1976 288.278 62.9221 288.757L64.6555 289.755ZM66.3173 281.737C66.118 282.252 66.3739 282.831 66.889 283.03C67.4041 283.229 67.9832 282.974 68.1825 282.458L66.3173 281.737ZM70.3195 274.571C70.4002 274.025 70.0226 273.517 69.4763 273.436C68.9299 273.355 68.4216 273.733 68.341 274.279L70.3195 274.571ZM68.34 266.657C68.428 267.202 68.9413 267.573 69.4865 267.485C70.0317 267.397 70.4025 266.884 70.3145 266.338L68.34 266.657ZM67.6266 258.525C67.3619 258.04 66.7543 257.862 66.2696 258.126C65.7849 258.391 65.6066 258.999 65.8713 259.483L67.6266 258.525ZM61.2502 253.377C61.6389 253.77 62.272 253.773 62.6644 253.384C63.0567 252.995 63.0597 252.362 62.671 251.97L61.2502 253.377ZM56.1548 246.863C55.6716 246.595 55.0631 246.77 54.7957 247.253C54.5283 247.737 54.7032 248.345 55.1865 248.612L56.1548 246.863ZM47.9687 246.434C48.5197 246.471 48.997 246.055 49.0348 245.504C49.0726 244.953 48.6565 244.476 48.1056 244.438L47.9687 246.434ZM39.8128 245.665C39.2932 245.853 39.0239 246.426 39.2112 246.945C39.3985 247.465 39.9715 247.734 40.491 247.547L39.8128 245.665ZM33.7545 251.273C34.1955 250.94 34.2837 250.313 33.9514 249.872C33.619 249.431 32.992 249.343 32.5509 249.675L33.7545 251.273ZM26.573 255.349C26.2142 255.769 26.2635 256.4 26.6833 256.759C27.1031 257.118 27.7344 257.068 28.0932 256.649L26.573 255.349ZM23.5551 263.055C23.834 262.578 23.6736 261.966 23.1969 261.687C22.7202 261.408 22.1077 261.569 21.8288 262.045L23.5551 263.055ZM18.2938 269.436C18.0976 269.952 18.357 270.53 18.8733 270.726C19.3896 270.922 19.9671 270.663 20.1633 270.147L18.2938 269.436ZM18.013 277.696C18.1167 277.154 17.761 276.63 17.2185 276.526C16.6761 276.423 16.1523 276.778 16.0486 277.321L18.013 277.696ZM15.2967 285.508C15.3029 286.061 15.7556 286.503 16.3079 286.497C16.8601 286.491 17.3028 286.038 17.2965 285.486L15.2967 285.508ZM18.2858 293.198C18.1483 292.663 17.6033 292.341 17.0684 292.478C16.5335 292.616 16.2112 293.161 16.3486 293.696L18.2858 293.198ZM19.4845 301.358C19.7637 301.835 20.3763 301.995 20.8528 301.715C21.3294 301.436 21.4893 300.824 21.2101 300.347L19.4845 301.358ZM26.0226 306.373C25.6208 305.995 24.9879 306.013 24.609 306.415C24.2301 306.817 24.2486 307.45 24.6504 307.828L26.0226 306.373ZM31.3363 312.683C31.8187 312.952 32.4278 312.779 32.6967 312.297C32.9655 311.814 32.7925 311.205 32.3101 310.936L31.3363 312.683ZM39.4857 314.037C38.9609 313.865 38.3961 314.151 38.2242 314.676C38.0523 315.201 38.3384 315.766 38.8632 315.938L39.4857 314.037ZM46.7943 317.888C47.3384 317.983 47.8563 317.619 47.9512 317.075C48.0461 316.531 47.682 316.013 47.1379 315.918L46.7943 317.888ZM54.9695 316.832C54.4184 316.796 53.9427 317.214 53.907 317.765C53.8713 318.316 54.2892 318.792 54.8403 318.828L54.9695 316.832ZM63.0495 318.908C63.6006 318.871 64.0179 318.395 63.9817 317.844C63.9454 317.293 63.4693 316.876 62.9182 316.912L63.0495 318.908ZM70.4852 315.724C69.9499 315.86 69.626 316.404 69.7618 316.94C69.8977 317.475 70.4417 317.799 70.9771 317.663L70.4852 315.724ZM78.5438 314.951C79.0435 314.716 79.258 314.12 79.0229 313.62C78.7877 313.121 78.192 312.906 77.6923 313.141L78.5438 314.951ZM84.3056 309.244C83.8569 309.566 83.7542 310.19 84.0761 310.639C84.3981 311.088 85.0229 311.19 85.4716 310.868L84.3056 309.244ZM91.5725 305.678C91.9638 305.288 91.9651 304.655 91.5754 304.264C91.1857 303.872 90.5525 303.871 90.1612 304.261L91.5725 305.678ZM95.2374 298.445C94.9023 298.884 94.9865 299.512 95.4255 299.847C95.8645 300.182 96.492 300.098 96.8271 299.659L95.2374 298.445ZM101.292 293.051C101.575 292.578 101.422 291.963 100.948 291.68C100.474 291.396 99.8601 291.549 99.5761 292.023L101.292 293.051ZM103.25 285.171C103.012 285.669 103.222 286.266 103.72 286.505C104.217 286.744 104.815 286.534 105.054 286.036L103.25 285.171ZM108.205 278.737C108.404 278.222 108.149 277.643 107.634 277.443C107.119 277.244 106.54 277.499 106.34 278.014L108.205 278.737ZM108.918 270.637C108.753 271.164 109.046 271.725 109.573 271.891C110.099 272.056 110.661 271.763 110.826 271.236L108.918 270.637ZM112.986 263.588C113.121 263.053 112.797 262.509 112.261 262.374C111.726 262.238 111.182 262.563 111.047 263.098L112.986 263.588ZM112.772 255.465C112.664 256.007 113.014 256.534 113.556 256.643C114.097 256.751 114.624 256.401 114.733 255.859L112.772 255.465ZM116.113 248.092C116.198 247.546 115.824 247.035 115.278 246.95C114.733 246.865 114.221 247.239 114.137 247.785L116.113 248.092ZM115.184 240.032C115.12 240.581 115.514 241.077 116.063 241.14C116.611 241.203 117.107 240.81 117.171 240.261L115.184 240.032ZM117.934 232.379C117.977 231.828 117.566 231.346 117.016 231.303C116.465 231.26 115.983 231.671 115.94 232.221L117.934 232.379ZM116.427 224.365C116.402 224.917 116.829 225.384 117.38 225.409C117.932 225.434 118.4 225.007 118.425 224.456L116.427 224.365ZM118.66 216.59C118.668 216.038 118.227 215.583 117.675 215.575C117.123 215.567 116.668 216.008 116.66 216.561L118.66 216.59ZM116.661 208.723C116.669 209.275 117.123 209.716 117.675 209.709C118.227 209.701 118.668 209.247 118.66 208.694L116.661 208.723ZM118.437 200.777C118.414 200.225 117.948 199.797 117.396 199.82C116.844 199.843 116.416 200.309 116.439 200.861L118.437 200.777ZM116.008 193.035C116.045 193.586 116.522 194.002 117.073 193.965C117.624 193.927 118.041 193.45 118.003 192.899L116.008 193.035ZM117.367 185.038C117.315 184.488 116.828 184.084 116.278 184.135C115.728 184.186 115.324 184.674 115.375 185.224L117.367 185.038ZM114.547 177.404C114.611 177.953 115.109 178.345 115.657 178.28C116.206 178.215 116.598 177.718 116.533 177.169L114.547 177.404ZM115.512 169.346C115.434 168.799 114.928 168.419 114.381 168.497C113.834 168.575 113.454 169.081 113.532 169.628L115.512 169.346ZM112.335 161.877C112.425 162.422 112.941 162.79 113.485 162.7C114.03 162.609 114.398 162.094 114.308 161.549L112.335 161.877ZM112.919 153.762C112.816 153.22 112.293 152.863 111.75 152.967C111.208 153.07 110.851 153.593 110.955 154.136L112.919 153.762ZM109.403 146.452C109.518 146.992 110.05 147.336 110.59 147.221C111.13 147.105 111.474 146.574 111.358 146.034L109.403 146.452ZM109.62 138.333C109.493 137.796 108.954 137.464 108.416 137.591C107.879 137.719 107.547 138.258 107.674 138.795L109.62 138.333ZM105.771 131.17C105.911 131.704 106.457 132.024 106.992 131.884C107.526 131.745 107.846 131.198 107.706 130.664L105.771 131.17ZM105.623 123.059C105.471 122.528 104.918 122.22 104.387 122.372C103.856 122.524 103.549 123.078 103.7 123.609L105.623 123.059ZM101.454 116.084C101.618 116.612 102.179 116.906 102.706 116.742C103.234 116.578 103.528 116.018 103.364 115.49L101.454 116.084ZM100.933 107.979C100.756 107.456 100.189 107.174 99.6658 107.35C99.1423 107.527 98.8608 108.094 99.037 108.617L100.933 107.979ZM96.4467 101.21C96.6351 101.729 97.2087 101.997 97.7279 101.809C98.247 101.62 98.5151 101.046 98.3267 100.527L96.4467 101.21ZM95.5438 93.1364C95.343 92.622 94.7631 92.3677 94.2486 92.5685C93.7341 92.7693 93.4799 93.3491 93.6807 93.8636L95.5438 93.1364ZM90.7389 86.5894C90.9522 87.0988 91.5381 87.3389 92.0476 87.1255C92.557 86.9122 92.797 86.3263 92.5837 85.8169L90.7389 86.5894ZM89.4424 78.5706C89.2164 78.0667 88.6246 77.8414 88.1207 78.0674C87.6168 78.2935 87.3915 78.8852 87.6176 79.3891L89.4424 78.5706ZM84.3162 72.2746C84.5552 72.7725 85.1525 72.9825 85.6504 72.7435C86.1484 72.5046 86.3583 71.9073 86.1194 71.4094L84.3162 72.2746ZM82.607 64.3308C82.3549 63.8394 81.7523 63.6454 81.2608 63.8975C80.7694 64.1496 80.5754 64.7523 80.8275 65.2437L82.607 64.3308ZM77.1535 58.3155C77.419 58.7998 78.0268 58.9772 78.5111 58.7118C78.9954 58.4464 79.1728 57.8386 78.9073 57.3542L77.1535 58.3155ZM75.013 50.4811C74.7339 50.0045 74.1213 49.8444 73.6448 50.1235C73.1682 50.4026 73.0081 51.0152 73.2872 51.4917L75.013 50.4811ZM69.2238 44.7806C69.5168 45.2488 70.1339 45.3907 70.602 45.0977C71.0702 44.8047 71.2121 44.1876 70.9191 43.7195L69.2238 44.7806ZM66.6295 37.0925C66.3222 36.6336 65.7011 36.5106 65.2422 36.8178C64.7832 37.125 64.6602 37.7461 64.9674 38.205L66.6295 37.0925ZM60.5002 31.755C60.8219 32.2039 61.4466 32.307 61.8955 31.9853C62.3444 31.6636 62.4476 31.0389 62.1259 30.59L60.5002 31.755ZM1.43666 343.9C2.56896 343.35 3.75778 342.745 4.99459 342.089L4.05692 340.322C2.83935 340.968 1.67203 341.562 0.563339 342.1L1.43666 343.9ZM11.9646 338.138C14.1501 336.826 16.4204 335.4 18.7422 333.872L17.6426 332.201C15.3433 333.714 13.0965 335.126 10.9355 336.423L11.9646 338.138ZM25.3443 329.343C27.478 327.819 29.6283 326.224 31.7716 324.567L30.5483 322.985C28.4257 324.626 26.2957 326.206 24.182 327.715L25.3443 329.343ZM38.0038 319.549C40.0459 317.834 42.0599 316.071 44.024 314.266L42.6707 312.793C40.7301 314.576 38.7387 316.321 36.718 318.017L38.0038 319.549ZM49.7871 308.693C51.6825 306.76 53.5025 304.791 55.2231 302.797L53.7087 301.49C52.0184 303.449 50.2274 305.387 48.3588 307.294L49.7871 308.693ZM60.237 296.508C61.8686 294.274 63.3524 292.019 64.6555 289.755L62.9221 288.757C61.6596 290.951 60.2165 293.145 58.6219 295.328L60.237 296.508ZM68.1825 282.458C69.2023 279.823 69.9334 277.187 70.3195 274.571L68.341 274.279C67.9797 276.727 67.2917 279.219 66.3173 281.737L68.1825 282.458ZM70.3145 266.338C69.883 263.663 69.0053 261.049 67.6266 258.525L65.8713 259.483C67.1406 261.807 67.9445 264.205 68.34 266.657L70.3145 266.338ZM62.671 251.97C61.7448 251.035 60.7323 250.119 59.6306 249.224L58.3694 250.776C59.4185 251.629 60.3774 252.496 61.2502 253.377L62.671 251.97ZM59.6306 249.224C58.4915 248.298 57.3312 247.513 56.1548 246.863L55.1865 248.612C56.254 249.203 57.3169 249.921 58.3694 250.776L59.6306 249.224ZM48.1056 244.438C45.2898 244.245 42.4995 244.697 39.8128 245.665L40.491 247.547C42.9473 246.661 45.4602 246.262 47.9687 246.434L48.1056 244.438ZM32.5509 249.675C30.4197 251.281 28.4119 253.198 26.573 255.349L28.0932 256.649C29.8475 254.597 31.7507 252.782 33.7545 251.273L32.5509 249.675ZM21.8288 262.045C20.4613 264.383 19.2706 266.866 18.2938 269.436L20.1633 270.147C21.1006 267.68 22.2433 265.298 23.5551 263.055L21.8288 262.045ZM16.0486 277.321C15.5302 280.033 15.2659 282.782 15.2967 285.508L17.2965 285.486C17.2674 282.903 17.5177 280.288 18.013 277.696L16.0486 277.321ZM16.3486 293.696C17.0324 296.357 18.0636 298.933 19.4845 301.358L21.2101 300.347C19.8888 298.092 18.9261 295.691 18.2858 293.198L16.3486 293.696ZM24.6504 307.828C26.5564 309.626 28.7777 311.257 31.3363 312.683L32.3101 310.936C29.8889 309.587 27.8028 308.052 26.0226 306.373L24.6504 307.828ZM38.8632 315.938C41.2939 316.734 43.9342 317.39 46.7943 317.888L47.1379 315.918C44.3646 315.434 41.8181 314.801 39.4857 314.037L38.8632 315.938ZM54.8403 318.828C56.1811 318.915 57.5609 318.972 58.9806 319L59.0194 317C57.6287 316.973 56.279 316.917 54.9695 316.832L54.8403 318.828ZM58.9806 319C60.3595 319.027 61.7158 318.995 63.0495 318.908L62.9182 316.912C61.6422 316.996 60.3426 317.026 59.0194 317L58.9806 319ZM70.9771 317.663C73.6062 316.996 76.1287 316.087 78.5438 314.951L77.6923 313.141C75.3917 314.224 72.9895 315.089 70.4852 315.724L70.9771 317.663ZM85.4716 310.868C87.6099 309.334 89.6435 307.599 91.5725 305.678L90.1612 304.261C88.3037 306.111 86.3516 307.775 84.3056 309.244L85.4716 310.868ZM96.8271 299.659C98.4013 297.596 99.8893 295.391 101.292 293.051L99.5761 292.023C98.2096 294.303 96.7631 296.446 95.2374 298.445L96.8271 299.659ZM105.054 286.036C106.173 283.703 107.224 281.267 108.205 278.737L106.34 278.014C105.376 280.499 104.346 282.887 103.25 285.171L105.054 286.036ZM110.826 271.236C111.604 268.759 112.324 266.208 112.986 263.588L111.047 263.098C110.394 265.683 109.684 268.198 108.918 270.637L110.826 271.236ZM114.733 255.859C115.242 253.323 115.702 250.733 116.113 248.092L114.137 247.785C113.73 250.398 113.275 252.959 112.772 255.465L114.733 255.859ZM117.171 240.261C117.469 237.674 117.723 235.045 117.934 232.379L115.94 232.221C115.731 234.865 115.479 237.469 115.184 240.032L117.171 240.261ZM118.425 224.456C118.543 221.864 118.621 219.241 118.66 216.59L116.66 216.561C116.622 219.192 116.544 221.794 116.427 224.365L118.425 224.456ZM118.66 208.694C118.623 206.078 118.549 203.438 118.437 200.777L116.439 200.861C116.55 203.504 116.624 206.125 116.661 208.723L118.66 208.694ZM118.003 192.899C117.825 190.295 117.613 187.673 117.367 185.038L115.375 185.224C115.62 187.843 115.831 190.448 116.008 193.035L118.003 192.899ZM116.533 177.169C116.225 174.572 115.885 171.964 115.512 169.346L113.532 169.628C113.903 172.23 114.241 174.823 114.547 177.404L116.533 177.169ZM114.308 161.549C113.877 158.96 113.414 156.363 112.919 153.762L110.955 154.136C111.446 156.722 111.906 159.303 112.335 161.877L114.308 161.549ZM111.358 146.034C110.81 143.469 110.231 140.901 109.62 138.333L107.674 138.795C108.281 141.349 108.857 143.902 109.403 146.452L111.358 146.034ZM107.706 130.664C107.042 128.127 106.348 125.591 105.623 123.059L103.7 123.609C104.421 126.127 105.111 128.648 105.771 131.17L107.706 130.664ZM103.364 115.49C102.584 112.981 101.773 110.476 100.933 107.979L99.037 108.617C99.8726 111.1 100.678 113.589 101.454 116.084L103.364 115.49ZM98.3267 100.527C97.4289 98.054 96.5013 95.5897 95.5438 93.1364L93.6807 93.8636C94.6323 96.3019 95.5543 98.7512 96.4467 101.21L98.3267 100.527ZM92.5837 85.8169C91.5666 83.3879 90.5195 80.9719 89.4424 78.5706L87.6176 79.3891C88.6877 81.7749 89.7281 84.1757 90.7389 86.5894L92.5837 85.8169ZM86.1194 71.4094C84.9788 69.0324 83.8081 66.6723 82.607 64.3308L80.8275 65.2437C82.0203 67.5691 83.1832 69.9134 84.3162 72.2746L86.1194 71.4094ZM78.9073 57.3542C77.6398 55.0417 76.3418 52.75 75.013 50.4811L73.2872 51.4917C74.6062 53.744 75.895 56.0193 77.1535 58.3155L78.9073 57.3542ZM70.9191 43.7195C69.5203 41.4848 68.0904 39.2751 66.6295 37.0925L64.9674 38.205C66.4169 40.3704 67.8356 42.5629 69.2238 44.7806L70.9191 43.7195ZM62.1259 30.59C61.3595 29.5206 60.5853 28.4586 59.8032 27.4042L58.1968 28.5958C58.9724 29.6413 59.7402 30.6944 60.5002 31.755L62.1259 30.59Z" fill="#FDC55E"/>
</svg>
